<svg width="400" height="400" viewBox="0 0 400 400" xmlns="http://www.w3.org/2000/svg">
  <defs>
    <linearGradient id="shieldGrad" x1="0%" y1="0%" x2="100%" y2="100%">
      <stop offset="0%" style="stop-color:#1a3a5f;stop-opacity:1" />
      <stop offset="100%" style="stop-color:#0d1b2a;stop-opacity:1" />
    </linearGradient>
    <radialGradient id="techGlow" cx="50%" cy="50%" r="50%">
      <stop offset="0%" style="stop-color:#00f2ff;stop-opacity:1" />
      <stop offset="100%" style="stop-color:#0077b6;stop-opacity:0" />
    </radialGradient>
  </defs>

  <path d="M200 40 L320 80 C320 180 280 280 200 340 C120 280 80 180 80 80 L200 40 Z" 
        fill="url(#shieldGrad)" stroke="#bdc3c7" stroke-width="4"/>

  <g stroke="#00f2ff" stroke-width="1.5" opacity="0.4">
    <line x1="160" y1="100" x2="160" y2="280" />
    <line x1="240" y1="100" x2="240" y2="280" />
    <circle cx="160" cy="120" r="3" fill="#00f2ff" />
    <circle cx="240" cy="260" r="3" fill="#00f2ff" />
  </g>

  <path d="M200 240 L130 260 L130 150 L200 130 M200 240 L270 260 L270 150 L200 130" 
        fill="none" stroke="white" stroke-width="6" stroke-linecap="round" stroke-linejoin="round"/>
  <line x1="200" y1="130" x2="200" y2="240" stroke="white" stroke-width="4" />

  <circle cx="200" cy="185" r="25" fill="url(#techGlow)" opacity="0.6" />
  <circle cx="200" cy="185" r="8" fill="#ffffff" />

  <text x="200" y="375" font-family="Arial, Helvetica, sans-serif" font-size="28" font-weight="bold" fill="#1a3a5f" text-anchor="middle">EduVerify AI</text>
  <text x="200" y="395" font-family="Arial, Helvetica, sans-serif" font-size="12" fill="#555" text-anchor="middle" letter-spacing="1">TRUTH AT THE CORE OF TECHNOLOGY</text>
</svg>